<?xml version="1.0" encoding="UTF-8"?>
<svg xmlns="http://www.w3.org/2000/svg" xmlns:xlink="http://www.w3.org/1999/xlink" xmlns:svgjs="http://svgjs.com/svgjs" version="1.1" width="512" height="512" x="0" y="0" viewBox="0 0 64 64" style="enable-background:new 0 0 512 512" xml:space="preserve" class="">
  <g>
    <g xmlns="http://www.w3.org/2000/svg" id="Buy">
      <path d="m31 32h2v22h-2z" fill="#ffffff" data-original="#000000" style="" class=""/>
      <path d="m39 32h2v22h-2z" fill="#ffffff" data-original="#000000" style="" class=""/>
      <path d="m7.427 24h3.873l7.272-20h-3.872z" fill="#ffffff" data-original="#000000" style="" class=""/>
      <path d="m56.573 24-7.273-20h-3.872l7.272 20z" fill="#ffffff" data-original="#000000" style="" class=""/>
      <path d="m25.7 24h5.3v-2h-3v-2h6a1 1 0 0 0 1-1v-2a1 1 0 0 0 -1-1h-4a3 3 0 0 1 -3-3v-2a3 3 0 0 1 3-3h1v-2h2v2h3v2h-6a1 1 0 0 0 -1 1v2a1 1 0 0 0 1 1h4a3 3 0 0 1 3 3v2a3 3 0 0 1 -3 3h-1v2h5.307a11 11 0 1 0 -12.607 0z" fill="#ffffff" data-original="#000000" style="" class=""/>
      <path d="m47 32h2v22h-2z" fill="#ffffff" data-original="#000000" style="" class=""/>
      <path d="m23 32h2v22h-2z" fill="#ffffff" data-original="#000000" style="" class=""/>
      <path d="m9.847 60h44.306l5.666-34h-55.638zm35.153-29a1 1 0 0 1 1-1h4a1 1 0 0 1 1 1v24a1 1 0 0 1 -1 1h-4a1 1 0 0 1 -1-1zm-8 0a1 1 0 0 1 1-1h4a1 1 0 0 1 1 1v24a1 1 0 0 1 -1 1h-4a1 1 0 0 1 -1-1zm-8 0a1 1 0 0 1 1-1h4a1 1 0 0 1 1 1v24a1 1 0 0 1 -1 1h-4a1 1 0 0 1 -1-1zm-8 0a1 1 0 0 1 1-1h4a1 1 0 0 1 1 1v24a1 1 0 0 1 -1 1h-4a1 1 0 0 1 -1-1zm-8 0a1 1 0 0 1 1-1h4a1 1 0 0 1 1 1v24a1 1 0 0 1 -1 1h-4a1 1 0 0 1 -1-1z" fill="#ffffff" data-original="#000000" style="" class=""/>
      <path d="m15 32h2v22h-2z" fill="#ffffff" data-original="#000000" style="" class=""/>
    </g>
  </g>
</svg>
