<?xml version="1.0" encoding="UTF-8"?>
<svg xmlns="http://www.w3.org/2000/svg" xmlns:xlink="http://www.w3.org/1999/xlink" xmlns:svgjs="http://svgjs.com/svgjs" version="1.1" width="512" height="512" x="0" y="0" viewBox="0 0 512 512" style="enable-background:new 0 0 512 512" xml:space="preserve" class="">
  <g>
    <polygon xmlns="http://www.w3.org/2000/svg" points="291.056 48 299.056 32 36.944 32 44.944 48 291.056 48" fill="#627fff" data-original="#000000" style="" class=""/>
    <path xmlns="http://www.w3.org/2000/svg" d="M64,256c0,6.034.124,12.523.346,19.32A32.047,32.047,0,0,1,96,248q.506,0,1.008.016a32,32,0,0,1,62.725,12.12A32,32,0,0,1,144,320c-1.006,0-2-.063-2.978-.154l-13.867,27.732a7.993,7.993,0,0,1-10.733,3.577l-16-8a8,8,0,0,1-4.267-5.587L90.962,311.6a32.083,32.083,0,0,1-26.149-24.461c1.443,31.4,4.579,67.48,7.494,96.861H168a24,24,0,1,1,24-24,24.028,24.028,0,0,1-24,24h56V352a7.974,7.974,0,0,1-5.657-2.343l-24-24a8,8,0,0,1,0-11.314l24-24A7.976,7.976,0,0,1,224,288V272H200a8,8,0,0,1-8-8V232a8,8,0,0,1,8-8h24V208H65.711C64.575,226.794,64,242.913,64,256Z" fill="#627fff" data-original="#000000" style="" class=""/>
    <circle xmlns="http://www.w3.org/2000/svg" cx="168" cy="360" r="8" fill="#627fff" data-original="#000000" style="" class=""/>
    <polygon xmlns="http://www.w3.org/2000/svg" points="224 332.687 224 307.313 211.313 320 224 332.687" fill="#627fff" data-original="#000000" style="" class=""/>
    <polygon xmlns="http://www.w3.org/2000/svg" points="36.944 480 224 480 224 464 44.944 464 36.944 480" fill="#627fff" data-original="#000000" style="" class=""/>
    <rect xmlns="http://www.w3.org/2000/svg" x="208" y="240" width="16" height="16" fill="#627fff" data-original="#000000" style="" class=""/>
    <path xmlns="http://www.w3.org/2000/svg" d="M108.842,263.787a8,8,0,0,1-7.48,1.137A16,16,0,1,0,112,280c0-.311-.012-.62-.03-.927a8,8,0,0,1,10.668-8c.364.129.755.251,1.161.362a8,8,0,0,1,5.327,10.667,16,16,0,1,0,19.086-9.543,8,8,0,0,1-5.338-10.669A16,16,0,1,0,112,256c0,.311.012.62.03.927A8,8,0,0,1,108.842,263.787Z" fill="#627fff" data-original="#000000" style="" class=""/>
    <path xmlns="http://www.w3.org/2000/svg" d="M288.911,64H47.09C43.792,91.677,32,194.9,32,256S43.791,420.325,47.09,448H224V400H65.07a8,8,0,0,1-7.959-7.191C52.955,351.912,48,294.979,48,256c0-15.14.746-34.157,2.218-56.525A8,8,0,0,1,58.2,192H224v-8a8,8,0,0,1,8-8h68.131C296.4,128.446,290.984,81.367,288.911,64Zm-67.254,74.343a8,8,0,0,1-11.314,11.314L196.686,136H184v12.686l13.657,13.657a8,8,0,0,1-11.314,11.314L176,163.313l-10.343,10.344a8,8,0,0,1-11.314-11.314L168,148.686V136H155.314l-13.657,13.657a8,8,0,0,1-11.314-11.314L140.686,128l-10.343-10.343a8,8,0,0,1,11.314-11.314L155.314,120H168V107.314L154.343,93.657a8,8,0,0,1,11.314-11.314L176,92.687l10.343-10.344a8,8,0,0,1,11.314,11.314L184,107.314V120h12.686l13.657-13.657a8,8,0,0,1,11.314,11.314L211.314,128Z" fill="#627fff" data-original="#000000" style="" class=""/>
    <path xmlns="http://www.w3.org/2000/svg" d="M273.691,391.4C296.329,407.087,327.4,416,360,416s63.671-8.913,86.309-24.6l-7.853-13.09C418.938,392,390.358,400,360,400c-30.224,0-58.942-8.022-78.457-21.688Z" fill="#627fff" data-original="#000000" style="" class=""/>
    <path xmlns="http://www.w3.org/2000/svg" d="M430.2,364.557,360,247.549,289.8,364.555C306.594,376.788,332.419,384,360,384,387.721,384,413.426,376.805,430.2,364.557Zm-41.782-35.712a8,8,0,0,1,10.733,3.577l8,16a8,8,0,1,1-14.31,7.156l-8-16A8,8,0,0,1,388.422,328.845Zm-34.079-38.5a8,8,0,1,1,0,11.314A8,8,0,0,1,354.343,290.343ZM327.029,360.97a24,24,0,0,1,0-33.94h0a24,24,0,1,1,0,33.941Z" fill="#627fff" data-original="#000000" style="" class=""/>
    <path xmlns="http://www.w3.org/2000/svg" d="M360,224H272V363.116l81.14-135.232A8,8,0,0,1,360,224Z" fill="#627fff" data-original="#000000" style="" class=""/>
    <path xmlns="http://www.w3.org/2000/svg" d="M116.581,304.485a32.025,32.025,0,0,1-9.611,5.574l4.107,20.536,5.346,2.672,9.458-18.918A32.227,32.227,0,0,1,116.581,304.485Z" fill="#627fff" data-original="#000000" style="" class=""/>
    <path xmlns="http://www.w3.org/2000/svg" d="M366.86,227.884,448,363.116V224H360A8,8,0,0,1,366.86,227.884Z" fill="#627fff" data-original="#000000" style="" class=""/>
    <path xmlns="http://www.w3.org/2000/svg" d="M344,336a7.944,7.944,0,0,0-5.656,2.343h0A8,8,0,1,0,344,336Z" fill="#627fff" data-original="#000000" style="" class=""/>
    <path xmlns="http://www.w3.org/2000/svg" d="M448,409.319C423.612,423.852,392.4,432,360,432s-63.612-8.148-88-22.681V448H448Z" fill="#627fff" data-original="#000000" style="" class=""/>
    <path xmlns="http://www.w3.org/2000/svg" d="M240,480H480V192H240Zm16-264a8,8,0,0,1,8-8H456a8,8,0,0,1,8,8V456a8,8,0,0,1-8,8H264a8,8,0,0,1-8-8Z" fill="#627fff" data-original="#000000" style="" class=""/>
  </g>
</svg>
