<?xml version="1.0" encoding="UTF-8"?>
<svg xmlns="http://www.w3.org/2000/svg" xmlns:xlink="http://www.w3.org/1999/xlink" xmlns:svgjs="http://svgjs.com/svgjs" version="1.1" width="512" height="512" x="0" y="0" viewBox="0 0 64 64" style="enable-background:new 0 0 512 512" xml:space="preserve">
  <g>
    <g xmlns="http://www.w3.org/2000/svg">
      <path d="m15 5h6v2h-6z" fill="#ffffff" data-original="#000000" style=""/>
      <path d="m18 53c-1.654 0-3 1.346-3 3s1.346 3 3 3 3-1.346 3-3-1.346-3-3-3zm0 4c-.551 0-1-.448-1-1s.449-1 1-1 1 .448 1 1-.449 1-1 1z" fill="#ffffff" data-original="#000000" style=""/>
      <path d="m60 17h-25v-11c0-2.757-2.243-5-5-5h-24c-2.757 0-5 2.243-5 5v52c0 2.757 2.243 5 5 5h24c2.757 0 5-2.243 5-5v-11h7c1.654 0 3-1.346 3-3v-5h15c.552 0 1-.447 1-1v-20c0-.553-.448-1-1-1zm-54-14h24c1.654 0 3 1.346 3 3v3h-30v-3c0-1.654 1.346-3 3-3zm24 58h-24c-1.654 0-3-1.346-3-3v-7h30v7c0 1.654-1.346 3-3 3zm3-12h-30v-38h30v6h-11c-.552 0-1 .447-1 1v7h-5c-1.654 0-3 1.346-3 3v16c0 1.654 1.346 3 3 3h17zm9-24h-12.024c.442-.584.772-1.257.923-2h20.201c.398 1.956 1.943 3.501 3.899 3.899v2.201c-1.956.398-3.501 1.943-3.899 3.899h-6.1v-5c0-1.653-1.346-2.999-3-2.999zm0 2c.551 0 1 .448 1 1v3h-28v-3c0-.552.449-1 1-1zm0 18h-26c-.551 0-1-.448-1-1v-11h28v11c0 .552-.449 1-1 1zm17-8h-14v-2h7c.552 0 1-.447 1-1 0-1.654 1.346-3 3-3 .552 0 1-.447 1-1v-4c0-.553-.448-1-1-1-1.654 0-3-1.346-3-3 0-.553-.448-1-1-1h-22c-.552 0-1 .447-1 1 0 1.654-1.346 3-3 3h-3v-6h36z" fill="#ffffff" data-original="#000000" style=""/>
      <path d="m37 35c-.705 0-1.393.19-2 .546-.607-.356-1.295-.546-2-.546-2.206 0-4 1.794-4 4s1.794 4 4 4c.705 0 1.393-.19 2-.546.607.356 1.295.546 2 .546 2.206 0 4-1.794 4-4s-1.794-4-4-4zm0 6c-.621 0-1.066-.283-1.331-.521-.19-.171-.43-.257-.669-.257s-.479.086-.669.257c-.265.238-.71.521-1.331.521-1.103 0-2-.897-2-2s.897-2 2-2c.621 0 1.066.283 1.331.521.38.342.958.342 1.338 0 .265-.238.71-.521 1.331-.521 1.103 0 2 .897 2 2s-.897 2-2 2z" fill="#ffffff" data-original="#000000" style=""/>
      <path d="m62.581 6.187-7-5c-.305-.219-.706-.245-1.039-.076-.333.171-.542.514-.542.889v2h-10c-.552 0-1 .447-1 1v4c0 .553.448 1 1 1h10v2c0 .375.209.718.542.89.145.074.302.11.458.11.205 0 .408-.062.581-.187l7-5c.263-.187.419-.49.419-.813s-.156-.626-.419-.813zm-6.581 3.87v-1.057c0-.553-.448-1-1-1h-10v-2h10c.552 0 1-.447 1-1v-1.057l4.279 3.057z" fill="#ffffff" data-original="#000000" style=""/>
      <path d="m56 54h-10v-2c0-.375-.209-.718-.542-.89s-.733-.143-1.039.076l-7 5c-.263.188-.419.491-.419.814s.156.626.419.813l7 5c.173.125.376.187.581.187.156 0 .313-.037.458-.11.333-.172.542-.515.542-.89v-2h10c.552 0 1-.447 1-1v-4c0-.553-.448-1-1-1zm-1 4h-10c-.552 0-1 .447-1 1v1.057l-4.279-3.057 4.279-3.057v1.057c0 .553.448 1 1 1h10z" fill="#ffffff" data-original="#000000" style=""/>
    </g>
  </g>
</svg>
